# xmcd CD database file
#
# Track frame offsets:
#	150
#	16270
#	34362
#	47615
#	60262
#	76487
#	88485
#	107580
#	119980
#	130500
#	144727
#	155480
#	168837
#	183797
#	196517
#	208942
#	220622
#	230780
#	245080
#
# Disc length: 3420 seconds
#
# Revision: 1
# Processed by: cddbd v1.4PL0 Copyright (c) Steve Scherf et al.
# Submitted via: CDex 1.50beta9
#
DISCID=0b0d5a13
DTITLE=Various Artist - Back to love
DYEAR=1900
DGENRE=
TTITLE0=Gene Pitney - Something's gotten hold of my heart
TTITLE1=Procol Harum - A whiter shade of pale
TTITLE2=Walker Brothers - My ship is coming in
TTITLE3=Dusty Springfield - You don't have to say you love me
TTITLE4=Righteous Brothers - Unchained melody
TTITLE5=Gerry and the pacemakers - You'll never walk alone
TTITLE6=Hollies - He ain't heavy he's my brother
TTITLE7=Lulu - To sir with love
TTITLE8=Everly Brothers - Bye bye love
TTITLE9=Nat King Cole - When I fall in love
TTITLE10=Andy Williams - Can't get used to losing you
TTITLE11=Julie London - Cry me a river
TTITLE12=Helen Reddy - I am woman
TTITLE13=Bobby Vinton - Blue Velvet
TTITLE14=Dinah Washington - Mad about the boy
TTITLE15=Sandie Shaw - (There's always) something there to remind me
TTITLE16=Searchers - Don't throw your love away
TTITLE17=Moddy Blues - Go now
TTITLE18=David McWilliams - Days of Pearly Spencer
EXTD=
EXTT0=
EXTT1=
EXTT2=
EXTT3=
EXTT4=
EXTT5=
EXTT6=
EXTT7=
EXTT8=
EXTT9=
EXTT10=
EXTT11=
EXTT12=
EXTT13=
EXTT14=
EXTT15=
EXTT16=
EXTT17=
EXTT18=
PLAYORDER=
